<?xml version="1.0" encoding="UTF-8"?>
<svg width="1024px" height="1024px" viewBox="0 0 1024 1024" version="1.1" xmlns="http://www.w3.org/2000/svg" xmlns:xlink="http://www.w3.org/1999/xlink">
    <title>App Icon issie pages 1024 x 1024 with border</title>
    <desc>Created with Sketch.</desc>
    <defs>
        <path d="M357.006366,0 L666.985888,0 C769.786177,0 821.173522,0 876.51177,17.493201 C936.927313,39.4834347 984.50882,87.0649414 1006.49905,147.480484 C1023.99225,202.810199 1023.99225,254.21461 1023.99225,357.006366 L1023.99225,666.985888 C1023.99225,769.786177 1023.99225,821.173522 1006.49905,876.51177 C984.50882,936.927313 936.927313,984.50882 876.51177,1006.49052 C821.173522,1023.99225 769.786177,1023.99225 666.985888,1023.99225 L357.006366,1023.99225 C254.206077,1023.99225 202.810199,1023.99225 147.480484,1006.49052 C87.0649414,984.50882 39.4834347,936.927313 17.493201,876.51177 C0,821.173522 0,769.786177 0,666.985888 L0,357.006366 C0,254.21461 0,202.810199 17.493201,147.480484 C39.4834347,87.0649414 87.0649414,39.4834347 147.480484,17.493201 C202.810199,0 254.206077,0 357.006366,0 L357.006366,0" id="path-1"></path>
        <path d="M352.128083,0 L657.871917,0 C759.2675,0 809.952667,0 864.53475,17.2541667 C924.12475,38.9439167 971.056083,85.87525 992.745833,145.46525 C1010,200.038917 1010,250.740917 1010,352.128083 L1010,657.871917 C1010,759.2675 1010,809.952667 992.745833,864.53475 C971.056083,924.12475 924.12475,971.056083 864.53475,992.737417 C809.952667,1010 759.2675,1010 657.871917,1010 L352.128083,1010 C250.7325,1010 200.038917,1010 145.46525,992.737417 C85.87525,971.056083 38.9439167,924.12475 17.2541667,864.53475 C0,809.952667 0,759.2675 0,657.871917 L0,352.128083 C0,250.740917 0,200.038917 17.2541667,145.46525 C38.9439167,85.87525 85.87525,38.9439167 145.46525,17.2541667 C200.038917,0 250.7325,0 352.128083,0 L352.128083,0" id="path-3"></path>
        <linearGradient x1="2.34574298%" y1="97.6241727%" x2="100%" y2="0.031565239%" id="linearGradient-5">
            <stop stop-color="#00B9EF" offset="0%"></stop>
            <stop stop-color="#00B9EF" offset="100%"></stop>
        </linearGradient>
        <polygon id="path-6" points="0.195576841 0.221342428 269.300577 0.221342428 269.300577 134.130925 0.195576841 134.130925 0.195576841 0.221342428"></polygon>
    </defs>
    <g id="App-Icon-issie-pages-1024-x-1024-with-border" stroke="none" stroke-width="1" fill="none" fill-rule="evenodd">
        <g id="1024">
            <mask id="mask-2" fill="white">
                <use xlink:href="#path-1"></use>
            </mask>
            <use id="Icon-Shape" fill="#D6D6D6" xlink:href="#path-1"></use>
        </g>
        <g id="1024" transform="translate(7.000000, 7.000000)">
            <mask id="mask-4" fill="white">
                <use xlink:href="#path-3"></use>
            </mask>
            <use id="Icon-Shape" fill="#D6D6D6" xlink:href="#path-3"></use>
            <g id="Icon" mask="url(#mask-4)">
                <rect id="Base" fill="url(#linearGradient-5)" x="0" y="0" width="1009.65341" height="1009.33466"></rect>
                <g id="Page-1" transform="translate(117.460297, 723.752796)">
                    <path d="M374.308972,134.863651 C374.308972,134.863651 344.988061,187.185058 405.218365,271.571157 C465.440151,355.961859 510.360553,316.695494 510.360553,316.695494 L497.980613,255.543413 L478.062835,162.676367 L374.308972,134.863651" id="Fill-3" fill="#FAA919"></path>
                    <path d="M551.283892,264.101821 C431.817371,304.923062 268.994219,229.995457 208.781217,166.966809 C105.413292,58.7145229 31.593079,133.956973 3.86075304,147.625575 C-0.587758452,149.840344 -0.82762917,151.517706 3.13023767,152.245106 C24.7240539,156.332659 96.4781081,175.663036 117.82115,255.335025 C207.789024,591.258013 489.942407,619.979447 638.38422,585.769944 C711.452112,568.925754 729.098965,537.853841 679.614726,552.922959 C637.620995,565.70131 605.358384,554.285477 604.93861,533.29945 C604.251708,499.67621 653.141721,493.585594 776.075464,430.030395 C972.507775,328.503843 893.18689,92.1260574 893.18689,92.1260574 C893.18689,92.1260574 778.850332,186.308043 551.283892,264.101821 Z" id="Fill-5" fill="#EEF4FA"></path>
                    <g id="Group-9" transform="translate(375.524755, 0.000000)">
                        <mask id="mask-7" fill="white">
                            <use xlink:href="#path-6"></use>
                        </mask>
                        <g id="Clip-8"></g>
                        <path d="M269.300577,87.558282 C269.300577,87.558282 218.640114,89.4442113 165.507323,70.0775129 C143.803319,62.1431387 116.665532,27.0244399 93.8632093,15.0577691 C20.9429123,-23.2804806 4.85055571,24.7882665 4.85055571,24.7882665 L8.35005408,35.3494709 C2.81399885,44.8554529 -0.209710039,56.1979709 0.239399663,68.2813897 C1.21765842,95.1783346 19.0353077,117.064096 42.2867397,122.717394 C55.2531148,127.436707 89.8923681,137.512958 139.890284,132.991218 C204.126311,127.167289 269.300577,87.558282 269.300577,87.558282" id="Fill-7" fill="#FAA919" mask="url(#mask-7)"></path>
                    </g>
                    <path d="M239.91839,39.386048 C239.91839,39.386048 281.431174,86.3446746 374.619829,117.791056 C467.817495,149.228555 521.826911,144.16587 586.440896,192.065978 C637.855482,230.160465 669.457455,286.036523 669.457455,286.036523 C669.457455,286.036523 614.57859,214.83918 500.469113,205.775197 C386.350626,196.697891 237.79207,94.1207816 239.91839,39.386048" id="Fill-10" fill="#FAA919"></path>
                </g>
            </g>
        </g>
        <g id="Cog" transform="translate(350.000000, 250.000000)">
             <path d="M125 0C56 0 0 56 0 125s56 125 125 125 125-56 125-125S194 0 125 0zm0 40c47 0 85 38 85 85s-38 85-85 85-85-38-85-85 38-85 85-85z" fill="#FEFEFE"/>
             <path d="M125 60c36 0 65 29 65 65s-29 65-65 65-65-29-65-65 29-65 65-65zm0 20c-25 0-45 20-45 45s20 45 45 45 45-20 45-45-20-45-45-45z" fill="#FEFEFE"/>
             <path d="M125 0C56 0 0 56 0 125s56 125 125 125 125-56 125-125S194 0 125 0zm0 40c47 0 85 38 85 85s-38 85-85 85-85-38-85-85 38-85 85-85z" fill="#FEFEFE"/>
             <path d="M125 60c36 0 65 29 65 65s-29 65-65 65-65-29-65-65 29-65 65-65zm0 20c-25 0-45 20-45 45s20 45 45 45 45-20 45-45-20-45-45-45z" fill="#FEFEFE"/>
             <path d="M219 125h-20c-2-6-5-11-9-16l15-13c4-4 4-11 0-15l-20-20c-4-4-11-4-15 0l-13 15c-5-4-11-7-16-9V47c0-6-5-11-11-11h-28c-6 0-11 5-11 11v20c-6 2-11 5-16 9L54 61c-4-4-11-4-15 0l-20 20c-4 4-4 11 0 15l15 13c-4 5-7 11-9 16H5c-6 0-11 5-11 11v28c0 6 5 11 11 11h20c2 6 5 11 9 16l-15 13c-4 4-4 11 0 15l20 20c4 4 11 4 15 0l13-15c5 4 11 7 16 9v20c0 6 5 11 11 11h28c6 0 11-5 11-11v-20c6-2 11-5 16-9l13 15c4 4 11 4 15 0l20-20c4-4 4-11 0-15l-15-13c4-5 7-11 9-16h20c6 0 11-5 11-11v-28c0-6-5-11-11-11z" fill="#FEFEFE"/>
        </g>
    </g>
</svg>