<?xml version="1.0" encoding="UTF-8"?>
<svg width="300" height="300" viewBox="0 0 300 300" version="1.0" xmlns="http://www.w3.org/2000/svg">
  <g transform="translate(0, -15) scale(1.05)">
    <g style="fill:currentColor;fill-opacity:1;display:inline"
       transform="matrix(1.8662777,0,0,1.8662777,-22.57881,-131.1672) translate(-180,-25) scale(1.6)">
      <g style="fill:currentColor;fill-opacity:1">
        <g style="fill:currentColor;fill-opacity:1">
          <path
             style="fill:currentColor;fill-opacity:1;fill-rule:evenodd;stroke:currentColor;stroke-width:1px;stroke-linecap:butt;stroke-linejoin:miter;stroke-opacity:1"
             d="M 178.82563,115.01958 C 177.67167,116.66692 177.78616,116.67717 174.63012,120.24392 C 171.47408,123.81067 165.91756,127.56753 165.91756,127.56753 L 156.57364,127.56753 L 156.57364,127.56753 C 156.06857,127.31499 173.19672,115.16832 175.47557,113.06855 C 174.36487,112.11041 173.11348,110.90633 172.35728,109.51105 C 169.33246,103.92992 172.99254,93.321302 177.28177,91.707111 C 181.52794,90.10913 183.99212,94.89833 184.4791,100.29341 C 184.71694,102.92831 183.19715,107.04348 182.10484,109.09702 C 184.38255,109.68421 185.36299,109.88986 185.36299,109.88986 L 185.61553,117.97108 C 185.61553,117.97108 181.76209,116.43695 178.82563,115.01958 z M 180.03927,108.34841 C 177.92329,107.69262 176.18426,107.09928 175.51401,106.48059 C 173.93397,105.0221 173.24116,102.56625 174.50385,101.05102 C 175.76654,99.535801 177.10642,99.135514 179.17581,100.04087 C 182.58372,101.92219 181.70869,105.6024 180.03927,108.34841 z" />
        </g>
      </g>
    </g>
    <g transform="translate(-300,-80)">
      <path
         style="fill:currentColor;fill-opacity:1;fill-rule:evenodd;stroke:currentColor;stroke-width:1.86627769px;stroke-linecap:butt;stroke-linejoin:miter;stroke-opacity:1;display:inline"
         d="M 439.29946,308.06736 L 439.35662,319.1598 L 497.79861,288.05358 L 497.91297,276.07573 L 439.29946,308.06736 z" />
    </g>
    <g transform="translate(-10, 85) scale(2)">
      <path style="fill:currentColor;stroke:currentColor;stroke-opacity:1"
            d="M58.058667 7.8787723c3.980372 13.7749117 10.911867 9.0086457 12.392507-3.4908464C74.376951 28.058868 61.830851 24.252088 59.018651 20.882178c0 0-4.014475 8.378031-10.472543 7.330779-6.458066-1.047255-2.618134-15.010644-2.618134-15.010644 1.112184 14.568343 10.547497 7.295967 12.130693-5.3235407zM27.94909366 63.99137785a2.0631683 2.0631683 0 1 1-4.12633626" />
    </g>
  </g>
</svg>
