<?xml version="1.0" encoding="UTF-8" standalone="no"?>
<!-- Created with Pixodesk SVG (https://pixodesk.com) -->
<svg xmlns="http://www.w3.org/2000/svg" viewBox="-500 -500 1620 1620" text-rendering="geometricPrecision" shape-rendering="geometricPrecision" stroke="#ffffff">
  <defs>
    <path d="M0.6002,0.6263L273.4248,0.6263L273.4248,136.4296L0.6002,136.4296L0.6002,0.6263"/>
  </defs>
  <g transform="translate(20, 220)scale(0.8, 0.8)">
    <path fill="#faa919" transform="translate(-33.4672, 386.6088)" d="M379.1453,137.1727C379.1453,137.1727,349.4192,190.234,410.4819,275.8134C471.536,361.3975,517.0774,321.576,517.0774,321.576L504.5263,259.5591L484.3333,165.3788L379.1453,137.1727"/>
    <path fill="#eef4fa" transform="translate(-33.4672, 386.6088)" d="M558.5664,268.2386C437.4487,309.6371,272.3749,233.6497,211.3297,169.7298C106.5331,59.9467,31.6925,136.2532,3.5769,150.1151C-0.933,152.3611,-1.1762,154.0624,2.8363,154.8C24.7285,158.9453,97.4744,178.5491,119.1124,259.3478C210.3237,600.0213,496.3771,629.1489,646.8706,594.4557C720.9484,577.3733,738.839,545.862,688.6709,561.1442C646.0968,574.1032,613.3882,562.526,612.9627,541.2432C612.2664,507.1445,661.8319,500.9676,786.4648,436.5137C985.6121,333.5514,905.1951,93.8306,905.1951,93.8306C905.1951,93.8306,789.2782,189.3447,558.5664,268.2386z"/>
    <g transform="translate(346.5087, 386.6088)">
      <path fill="#faa919" d="M273.4248,89.1984C273.4248,89.1984,222.064,91.1109,168.1969,71.4704C146.193,63.4239,118.68,27.8085,95.5626,15.6726C21.6345,-23.2078,5.3196,25.5407,5.3196,25.5407L8.8675,36.2512C3.255,45.8916,0.1894,57.3946,0.6447,69.6489C1.6364,96.9262,19.7004,119.1215,43.2732,124.8547C56.4187,129.6406,91.537,139.8594,142.2258,135.2738C207.3496,129.3676,273.4248,89.1984,273.4248,89.1984"/>
    </g>
    <path fill="#faa919" transform="translate(-33.4672, 386.6088)" d="M242.8972,40.3449C242.8972,40.3449,284.9839,87.9677,379.4605,119.8587C473.9463,151.7407,528.7023,146.6065,594.2093,195.184C646.3345,233.8172,678.3733,290.4835,678.3733,290.4835C678.3733,290.4835,622.7358,218.2792,507.0492,209.0871C391.3534,199.8815,240.7415,95.8536,242.8972,40.3449"/>
  </g>
  <g fill="#feffff" transform="translate(60, 0)scale(0.8, 0.8)">
    <path d="M379.0582,405.9135C320.7353,405.9135,262.9132,405.9165,205.0902,405.9116C187.9822,405.9106,177.4512,395.3275,177.4332,378.1106C177.4153,362.2806,177.4012,346.4496,177.4382,330.6196C177.4742,315.1307,188.2743,304.0964,203.8142,304.0865C304.6292,304.0265,405.4443,304.0277,506.2582,304.0856C521.8012,304.0946,532.5702,315.0147,532.6642,330.6046C532.7631,346.9336,532.7702,363.2656,532.6622,379.5946C532.5593,395.0645,521.5542,405.8936,506.0352,405.9046C463.8763,405.9315,421.7171,405.9135,379.0582,405.9135"/>
    <path d="M6.9521,159.9651C12.553,154.3652,19.0091,151.9771,26.5621,152.0224C42.876,152.124,59.19,152.0202,75.504,152.0641C90.662,152.1061,101.6132,163.0221,101.6741,178.1981C101.739,194.512,101.7121,210.8272,101.6821,227.1411C101.6532,242.4231,91.2021,253.5432,75.9591,253.8341C59.3183,254.153,42.6609,254.147,26.0201,253.8391C10.3901,253.5502,0.0651,242.5681,0.0571,226.9331C0.0491,210.9522,0.174,194.969,0.0021,178.9901C-0.0759,171.8062,1.9631,165.5841,6.9521,159.9651"/>
    <path d="M710.0608,185.0723C710.0608,199.3953,710.0697,213.2204,710.0578,227.0463C710.0448,242.4033,699.8008,253.4613,684.4358,253.8133C667.6209,254.1973,650.7848,254.1782,633.9678,253.8223C618.9438,253.5053,608.4787,242.3823,608.4378,227.4333C608.3928,211.1096,608.3939,194.784,608.4378,178.4603C608.4787,162.9373,619.3649,152.0812,634.8638,152.0593C650.6888,152.0364,666.5128,152.0513,682.3368,152.0553C699.6878,152.0592,710.0559,162.3553,710.0608,179.5783C710.0608,181.2432,710.0608,182.9094,710.0608,185.0723"/>
    <path d="M364.0575,101.6871C352.7306,101.6871,341.9034,101.7411,331.0765,101.6751C314.9456,101.5762,304.2105,90.743,304.2025,74.6431C304.1936,58.4851,304.1765,42.3281,304.2075,26.1711C304.2364,10.9101,315.0876,0.0691,330.3055,0.0571C346.9625,0.0439,363.6196,0.0341,380.2765,0.0601C394.8165,0.0831,405.8436,11.0551,405.9015,25.6451C405.9655,42.135,405.9335,58.6261,405.9105,75.117C405.8895,90.365,395.2515,101.3072,380.0475,101.6671C374.8875,101.789,369.7214,101.6871,364.0575,101.6871"/>
    <path d="M492.0737,101.687C487.2558,101.5741,482.8846,101.8368,478.6217,101.278C465.6528,99.577,456.4627,89.545,456.2677,76.536C456.0107,59.383,456.0088,42.221,456.2627,25.068C456.4746,10.79,467.7577,0.075,482.0307,0.059C498.8547,0.04,515.6777,0.0341,532.5017,0.06C546.5777,0.082,557.7876,10.7141,557.9906,24.756C558.2425,42.076,558.2447,59.405,557.9947,76.724C557.7888,91.0389,546.4817,101.5401,531.5477,101.664C518.5568,101.773,505.5626,101.687,492.0737,101.687"/>
    <path d="M183.1541,101.6871C178.7002,101.3652,174.6061,101.553,170.7841,100.6251C160.0891,98.0251,152.233,88.028,152.1111,76.8351C151.9221,59.5142,151.8991,42.1871,152.1101,24.8671C152.281,10.8361,163.4762,0.0861,177.4991,0.0611C194.3231,0.0311,211.1461,0.0423,227.9691,0.0581C242.253,0.0721,253.5811,10.6901,253.8371,24.9711C254.145,42.1221,254.149,59.2871,253.8381,76.4371C253.5741,90.98,242.41,101.5252,227.6121,101.6581C212.9561,101.7891,198.2971,101.6871,183.1541,101.6871"/>
    <path d="M369.0557,152.0543C373.2196,152.0543,376.8848,152.0173,380.5488,152.0613C394.7137,152.2322,405.8139,163.3122,405.8938,177.5432C405.9868,194.0331,405.9277,210.5244,405.9128,227.0153C405.8988,242.3633,395.6247,253.4604,380.2768,253.8133C363.4619,254.1992,346.6247,254.2043,329.8098,253.8093C314.4559,253.4493,304.2178,242.3623,304.2038,226.9913C304.1889,210.8334,304.187,194.6762,304.2038,178.5183C304.2206,163.0413,315.1218,152.0982,330.5778,152.0603C343.2377,152.0293,355.8967,152.0543,369.0557,152.0543"/>
    <path d="M613.5327,91.4791C609.7927,86.0981,608.3208,80.487,608.3788,74.2711C608.5267,58.4601,608.4079,42.647,608.4338,26.8351C608.4597,10.5632,619.0399,0.0579,635.3578,0.0551C651.8358,0.0511,668.3139,0.0262,684.7918,0.0631C699.0148,0.0941,709.9959,11.09,710.0468,25.403C710.1058,42.0469,710.0757,58.6922,710.0558,75.3371C710.0379,90.3641,699.6308,101.3571,684.5658,101.6151C667.5929,101.906,650.6108,101.8,633.6348,101.6311C625.5469,101.5501,618.8836,98.075,613.5327,91.4791"/>
    <path d="M489.0746,152.0552C503.7295,152.0552,517.8886,152.0193,532.0466,152.0652C546.9025,152.1142,557.9366,163.0232,558.0346,177.9102C558.1425,194.4001,558.1226,210.8913,558.0416,227.3812C557.9678,242.3942,547.5905,253.4402,532.4936,253.8042C515.6807,254.2092,498.8436,254.1711,482.0276,253.8242C466.7867,253.5102,456.2836,242.3621,456.2176,227.0972C456.1477,211.2732,456.1926,195.4492,456.2046,179.6252C456.2155,162.8092,466.8886,152.0701,483.5806,152.0552C485.2465,152.0542,486.9117,152.0552,489.0746,152.0552"/>
    <path d="M253.9148,184.1069C253.9148,198.5899,253.9508,212.58,253.9058,226.5709C253.8529,242.6609,243.1137,253.71,227.0948,253.8759C210.9409,254.0429,194.7817,254.0648,178.6278,253.8679C162.7768,253.6749,152.1057,242.7009,152.0658,226.8959C152.0248,210.9069,152.0238,194.9169,152.0658,178.9279C152.1087,162.73,162.8329,152.0718,179.0388,152.0579C194.5288,152.0449,210.0188,152.0549,225.5088,152.0549C243.6158,152.0559,253.9039,162.4008,253.9148,180.6168C253.9158,181.6157,253.9148,182.6162,253.9148,184.1069"/>
    <path d="M95.4175,8.7399C99.9645,14.0639,101.7134,19.979,101.6995,26.5419C101.6655,42.7078,101.7385,58.8749,101.6745,75.0419C101.6126,90.5989,90.8245,101.553,75.3465,101.6619C59.0136,101.7759,42.6784,101.8019,26.3465,101.6529C10.6875,101.511,0.0715,90.6619,0.0585,75.0929C0.0446,58.5929,0.0296,42.0929,0.0635,25.5939C0.0935,10.9799,11.0355,0.0809,25.6725,0.0599C42.1725,0.0359,58.6736,0.1758,75.1715,0.0019C83.1854,-0.083,89.7925,2.611,95.4175,8.7399"/>
  </g>
</svg>