<?xml version="1.0" encoding="UTF-8" standalone="no"?>
<!-- IssieVoice App Icon -->
<svg xmlns="http://www.w3.org/2000/svg" viewBox="-500 -500 1620 1620" text-rendering="geometricPrecision" shape-rendering="geometricPrecision">
  <defs>
    <path d="M0.6002,0.6263L273.4248,0.6263L273.4248,136.4296L0.6002,136.4296L0.6002,0.6263"/>
  </defs>

  <!-- Blue Background (no rounded corners) -->
  <rect x="-500" y="-500" width="1620" height="1620" fill="#00BCF5"/>

  <!-- Speaker/Readout Icon in White (Upper Area) -->
  <g id="Group-14" transform="scale(1.6) translate(-120, -260)">
    <g id="Group-3">
        <path d="M437.736517,538.526662 C319.537436,595.579008 181.472238,562.876131 103.269321,459.038409 C25.516247,355.798779 33.5105,210.190707 124.176218,115.620926 C212.191018,23.8179424 354.696546,5.97293079 463.346014,76.7681395 C569.493957,145.933092 615.874236,285.155993 561.839991,404.764457 C539.279798,454.704313 537.193258,507.487177 573.388168,555.001529 C531.313764,528.00952 483.014598,516.67228 437.736517,538.526662 Z"  fill="#FFFFFF" ></path>
        <path d="M413.508418,250.236559 C434.383838,281.898189 434.383838,322.876005 413.508418,354.537634 M453.171717,215.817204 C490.747475,267.293987 490.747475,337.480207 453.171717,388.956989 M494.791246,184.526882 C550.459035,253.368752 550.459035,351.405442 494.791246,420.247312" id="Shape" stroke="#00B9EF" stroke-width="28" stroke-linecap="round" fill="#FFFFFF"></path>
    </g>
    <path d="M174.135437,484 C172.466865,477.130701 172.043388,469.796917 172.676794,462.778838 C174.38156,443.872844 176.741449,413.499875 194.284976,401.858718 C212.288175,389.912742 240.610457,399.652414 261.06765,396.136117 C271.100796,394.412442 278.32886,387.035112 279.045513,376.75838 C279.302495,373.049757 275.835051,367.207406 276.341776,364.355177 C277.271977,359.166008 282.545532,357.347984 283.359911,354.702597 C286.606567,344.131932 260.060655,338.366015 265.092092,333.21396 C270.123529,328.061905 282.234258,329.072455 286.32063,323.680074 C292.821182,315.003638 279.649963,310.177348 286.356824,301.74767 C287.688786,300.078426 290.305656,299.22929 292.49905,298.503532 C295.488724,297.512872 298.724522,297.258857 301.699719,296.231909 C311.269574,292.915196 307.339631,282.705635 300.882513,274.758586 C297.907316,271.093508 295.543016,268.812891 292.49905,265.191359 C285.086393,256.384286 280.040865,253.239101 279.045513,240.712907 C278.441468,233.111189 279.646344,221.108706 280.040865,213.607998 C281.228048,191.073215 276.236811,170.033492 265.97564,150.075149 C258.338577,135.218885 248.091883,122.43103 235.550451,111.54829 C226.186905,103.42343 215.94383,97.0585327 205.049253,92 C132.873582,132.392057 84,209.623587 84,298.383782 C84,373.757371 119.32232,440.730312 174.135437,484 Z" id="Fill-12" fill="#00B9EF"></path>
  </g>


  <!-- Original Bird and Person (scaled and positioned) -->
  <g transform="translate(-320, 0) scale(1.6)" opacity="1">
    <path fill="#faa919" transform="translate(-33.4672, 386.6088)" d="M379.1453,137.1727C379.1453,137.1727,349.4192,190.234,410.4819,275.8134C471.536,361.3975,517.0774,321.576,517.0774,321.576L504.5263,259.5591L484.3333,165.3788L379.1453,137.1727"/>
    <path fill="#ffffff" transform="translate(-33.4672, 386.6088)" d="M558.5664,268.2386C437.4487,309.6371,272.3749,233.6497,211.3297,169.7298C106.5331,59.9467,31.6925,136.2532,3.5769,150.1151C-0.933,152.3611,-1.1762,154.0624,2.8363,154.8C24.7285,158.9453,97.4744,178.5491,119.1124,259.3478C210.3237,600.0213,496.3771,629.1489,646.8706,594.4557C720.9484,577.3733,738.839,545.862,688.6709,561.1442C646.0968,574.1032,613.3882,562.526,612.9627,541.2432C612.2664,507.1445,661.8319,500.9676,786.4648,436.5137C985.6121,333.5514,905.1951,93.8306,905.1951,93.8306C905.1951,93.8306,789.2782,189.3447,558.5664,268.2386z"/>
    <g transform="translate(346.5087, 386.6088)">
      <path fill="#faa919" d="M273.4248,89.1984C273.4248,89.1984,222.064,91.1109,168.1969,71.4704C146.193,63.4239,118.68,27.8085,95.5626,15.6726C21.6345,-23.2078,5.3196,25.5407,5.3196,25.5407L8.8675,36.2512C3.255,45.8916,0.1894,57.3946,0.6447,69.6489C1.6364,96.9262,19.7004,119.1215,43.2732,124.8547C56.4187,129.6406,91.537,139.8594,142.2258,135.2738C207.3496,129.3676,273.4248,89.1984,273.4248,89.1984"/>
    </g>
    <path fill="#faa919" transform="translate(-33.4672, 386.6088)" d="M242.8972,40.3449C242.8972,40.3449,284.9839,87.9677,379.4605,119.8587C473.9463,151.7407,528.7023,146.6065,594.2093,195.184C646.3345,233.8172,678.3733,290.4835,678.3733,290.4835C678.3733,290.4835,622.7358,218.2792,507.0492,209.0871C391.3534,199.8815,240.7415,95.8536,242.8972,40.3449"/>
  </g>

   
</svg>
