<?xml version="1.0" encoding="UTF-8" standalone="no"?>
<!-- IssieVoice App Icon -->
<svg xmlns="http://www.w3.org/2000/svg" viewBox="-500 -500 1620 1620" text-rendering="geometricPrecision" shape-rendering="geometricPrecision">
  <defs>
    <path d="M0.6002,0.6263L273.4248,0.6263L273.4248,136.4296L0.6002,136.4296L0.6002,0.6263"/>
  </defs>

  <!-- Blue Background (no rounded corners) -->
  <rect x="-500" y="-500" width="1620" height="1620" fill="#00BCF5"/>

  <!-- Speaker/Readout Icon in White (Upper Area) -->
  <g transform="translate(-450, -450) scale(1.6)">
    <!-- Speaker cone -->
    <path d="M477.125 207.398L377.778 300.844C376.851 301.717 375.626 302.202 374.353 302.202H291C288.239 302.202 286 304.441 286 307.202V425.707C286 428.469 288.239 430.707 291 430.707H372.906C374.18 430.707 375.406 431.194 376.333 432.067L477.125 526.952V480.348V207.398Z" fill="white" stroke="white" stroke-width="33.3333" stroke-linejoin="round"/>
    
    <path d="M569.148 295.378C597.893 339.172 597.893 395.853 569.148 439.648M624.093 247.512C676.689 318.868 676.689 416.158 624.093 487.514M678.026 203.691C754.897 299.379 754.897 435.647 678.026 531.334" stroke="white" stroke-width="33.3333" stroke-linecap="round" fill="none"/>
  </g>


  <!-- Original Bird and Person (scaled and positioned) -->
  <g transform="translate(-320, 0) scale(1.6)" opacity="1">
    <path fill="#faa919" transform="translate(-33.4672, 386.6088)" d="M379.1453,137.1727C379.1453,137.1727,349.4192,190.234,410.4819,275.8134C471.536,361.3975,517.0774,321.576,517.0774,321.576L504.5263,259.5591L484.3333,165.3788L379.1453,137.1727"/>
    <path fill="#ffffff" transform="translate(-33.4672, 386.6088)" d="M558.5664,268.2386C437.4487,309.6371,272.3749,233.6497,211.3297,169.7298C106.5331,59.9467,31.6925,136.2532,3.5769,150.1151C-0.933,152.3611,-1.1762,154.0624,2.8363,154.8C24.7285,158.9453,97.4744,178.5491,119.1124,259.3478C210.3237,600.0213,496.3771,629.1489,646.8706,594.4557C720.9484,577.3733,738.839,545.862,688.6709,561.1442C646.0968,574.1032,613.3882,562.526,612.9627,541.2432C612.2664,507.1445,661.8319,500.9676,786.4648,436.5137C985.6121,333.5514,905.1951,93.8306,905.1951,93.8306C905.1951,93.8306,789.2782,189.3447,558.5664,268.2386z"/>
    <g transform="translate(346.5087, 386.6088)">
      <path fill="#faa919" d="M273.4248,89.1984C273.4248,89.1984,222.064,91.1109,168.1969,71.4704C146.193,63.4239,118.68,27.8085,95.5626,15.6726C21.6345,-23.2078,5.3196,25.5407,5.3196,25.5407L8.8675,36.2512C3.255,45.8916,0.1894,57.3946,0.6447,69.6489C1.6364,96.9262,19.7004,119.1215,43.2732,124.8547C56.4187,129.6406,91.537,139.8594,142.2258,135.2738C207.3496,129.3676,273.4248,89.1984,273.4248,89.1984"/>
    </g>
    <path fill="#faa919" transform="translate(-33.4672, 386.6088)" d="M242.8972,40.3449C242.8972,40.3449,284.9839,87.9677,379.4605,119.8587C473.9463,151.7407,528.7023,146.6065,594.2093,195.184C646.3345,233.8172,678.3733,290.4835,678.3733,290.4835C678.3733,290.4835,622.7358,218.2792,507.0492,209.0871C391.3534,199.8815,240.7415,95.8536,242.8972,40.3449"/>
  </g>

   
</svg>
