<?xml version="1.0" encoding="UTF-8" standalone="no"?>
<!-- IssieVoice App Icon -->
<svg xmlns="http://www.w3.org/2000/svg" viewBox="-500 -500 1620 1620" text-rendering="geometricPrecision" shape-rendering="geometricPrecision">
  <defs>
    <path d="M0.6002,0.6263L273.4248,0.6263L273.4248,136.4296L0.6002,136.4296L0.6002,0.6263"/>
  </defs>

  <!-- Blue Background (no rounded corners) -->
  <rect x="-500" y="-500" width="1620" height="1620" fill="#00BCF5"/>


<g id="Group" transform="translate(-250, -150) scale(1.6)" fill="#FEFFFF">
            <path d="M379.05825,405.913648 C320.73525,405.913648 262.91325,405.916648 205.09025,405.911648 C187.98225,405.910648 177.45125,395.327648 177.43325,378.110648 C177.415331,362.280648 177.40125,346.449648 177.43825,330.619648 C177.47425,315.130648 188.27425,304.096648 203.81425,304.086648 C304.62925,304.026648 405.44425,304.027648 506.25825,304.085648 C521.80125,304.094648 532.57025,315.014648 532.66425,330.604648 C532.76325,346.933648 532.77025,363.265648 532.66225,379.594648 C532.55925,395.064648 521.55425,405.893648 506.03525,405.904648 C463.87625,405.931648 421.71725,405.913648 379.05825,405.913648" id="Fill-50"></path>
            <path d="M6.95215023,159.965148 C12.5531502,154.365148 19.0091502,151.977148 26.5621502,152.022496 C42.8761502,152.124148 59.1901502,152.020148 75.5041502,152.064148 C90.6621502,152.106148 101.61315,163.022148 101.67415,178.198148 C101.73915,194.512148 101.71215,210.827148 101.68215,227.141148 C101.65315,242.423148 91.2021502,253.543148 75.9591502,253.834148 C59.3181502,254.153148 42.6611502,254.147148 26.0201502,253.839148 C10.3901502,253.550148 0.0651502286,242.568148 0.0571502286,226.933148 C0.0491502286,210.952148 0.174150229,194.969148 0.00215022864,178.990148 C-0.0758497714,171.806148 1.96315023,165.584148 6.95215023,159.965148" id="Fill-58"></path>
            <path d="M710.06085,185.072348 C710.06085,199.395348 710.06985,213.220348 710.05785,227.046348 C710.04485,242.403348 699.80085,253.461348 684.43585,253.813348 C667.62085,254.197348 650.78485,254.178348 633.96785,253.822348 C618.94385,253.505348 608.47885,242.382348 608.43785,227.433348 C608.39285,211.109348 608.39385,194.784348 608.43785,178.460348 C608.47885,162.937348 619.36485,152.081348 634.86385,152.059348 C650.68885,152.036348 666.51285,152.051348 682.33685,152.055348 C699.68785,152.059348 710.05585,162.355348 710.06085,179.578348 C710.06085,181.243348 710.06085,182.909348 710.06085,185.072348" id="Fill-60"></path>
            <path d="M364.05755,101.687148 C352.73055,101.687148 341.90355,101.741148 331.07655,101.675148 C314.94555,101.576148 304.21055,90.7431476 304.20255,74.6431476 C304.19355,58.4851476 304.17655,42.3281476 304.20755,26.1711476 C304.23655,10.9101476 315.08755,0.069147552 330.30555,0.057147552 C346.96255,0.043907587 363.61955,0.034147552 380.27655,0.060147552 C394.81655,0.083147552 405.84355,11.0551476 405.90155,25.6451476 C405.96555,42.1351476 405.93355,58.6261476 405.91055,75.1171476 C405.88955,90.3651476 395.25155,101.307148 380.04755,101.667148 C374.88755,101.789148 369.72155,101.687148 364.05755,101.687148" id="Fill-62"></path>
            <path d="M492.07375,101.687048 C487.25575,101.574048 482.88475,101.837048 478.62175,101.278048 C465.65275,99.5770476 456.46275,89.5450476 456.26775,76.5360476 C456.01075,59.3830476 456.00875,42.2210476 456.26275,25.0680476 C456.47475,10.7900476 467.75775,0.075047552 482.03075,0.059047552 C498.85475,0.040047552 515.67775,0.034047552 532.50175,0.060047552 C546.57775,0.082047552 557.78775,10.7140476 557.99075,24.7560476 C558.24275,42.0760476 558.24475,59.4050476 557.99475,76.7240476 C557.78875,91.0390476 546.48175,101.540048 531.54775,101.664048 C518.55675,101.773048 505.56275,101.687048 492.07375,101.687048" id="Fill-64"></path>
            <path d="M183.15415,101.687148 C178.70015,101.365148 174.60615,101.553148 170.78415,100.625148 C160.08915,98.0251476 152.23315,88.0281476 152.11115,76.8351476 C151.92215,59.5141476 151.89915,42.1871476 152.11015,24.8671476 C152.28115,10.8361476 163.47615,0.086147552 177.49915,0.061147552 C194.32315,0.031147552 211.14615,0.0422699345 227.96915,0.058147552 C242.25315,0.072147552 253.58115,10.6901476 253.83715,24.9711476 C254.14515,42.1221476 254.14915,59.2871476 253.83815,76.4371476 C253.57415,90.9801476 242.41015,101.525148 227.61215,101.658148 C212.95615,101.789148 198.29715,101.687148 183.15415,101.687148" id="Fill-66"></path>
            <path d="M369.05585,152.054348 C373.21985,152.054348 376.88485,152.017348 380.54885,152.061348 C394.71385,152.232348 405.81385,163.312348 405.89385,177.543348 C405.98685,194.033348 405.92785,210.524348 405.91285,227.015348 C405.89885,242.363348 395.62485,253.460348 380.27685,253.813348 C363.46185,254.199348 346.62485,254.204348 329.80985,253.809348 C314.45585,253.449348 304.21785,242.362348 304.20385,226.991348 C304.18885,210.833348 304.18685,194.676348 304.20385,178.518348 C304.22085,163.041348 315.12185,152.098348 330.57785,152.060348 C343.23785,152.029348 355.89685,152.054348 369.05585,152.054348" id="Fill-68"></path>
            <path d="M613.53285,91.4791476 C609.79285,86.0981476 608.32085,80.4871476 608.37885,74.2711476 C608.52685,58.4601476 608.40785,42.6471476 608.43385,26.8351476 C608.45985,10.5631476 619.03985,0.058147552 635.35785,0.055147552 C651.83585,0.051147552 668.31385,0.026147552 684.79185,0.063147552 C699.01485,0.094147552 709.99585,11.0901476 710.04685,25.4031476 C710.10585,42.0471476 710.07585,58.6921476 710.05585,75.3371476 C710.03785,90.3641476 699.63085,101.357148 684.56585,101.615148 C667.59285,101.906148 650.61085,101.800148 633.63485,101.631148 C625.54685,101.550148 618.88385,98.0751476 613.53285,91.4791476" id="Fill-70"></path>
            <path d="M489.07465,152.055248 C503.72965,152.055248 517.88865,152.019248 532.04665,152.065248 C546.90265,152.114248 557.93665,163.023248 558.03465,177.910248 C558.14265,194.400248 558.12265,210.891248 558.04165,227.381248 C557.96765,242.394248 547.59065,253.440248 532.49365,253.804248 C515.68065,254.209248 498.84365,254.171248 482.02765,253.824248 C466.78665,253.510248 456.28365,242.362248 456.21765,227.097248 C456.14765,211.273248 456.19265,195.449248 456.20465,179.625248 C456.21565,162.809248 466.88865,152.070248 483.58065,152.055248 C485.24665,152.054248 486.91165,152.055248 489.07465,152.055248" id="Fill-72"></path>
            <path d="M253.91485,184.106948 C253.91485,198.589948 253.95085,212.579948 253.90585,226.570948 C253.85285,242.660948 243.11385,253.709948 227.09485,253.875948 C210.94085,254.042948 194.78185,254.064948 178.62785,253.867948 C162.77685,253.674948 152.10585,242.700948 152.06585,226.895948 C152.02485,210.906948 152.02385,194.916948 152.06585,178.927948 C152.10885,162.729948 162.83285,152.071948 179.03885,152.057948 C194.52885,152.044948 210.01885,152.054948 225.50885,152.054948 C243.61585,152.055948 253.90385,162.400948 253.91485,180.616948 C253.91585,181.615948 253.91485,182.615948 253.91485,184.106948" id="Fill-74"></path>
            <path d="M95.4175502,8.73994755 C99.9645502,14.0639476 101.71355,19.9789476 101.69955,26.5419476 C101.66555,42.7079476 101.73855,58.8749476 101.67455,75.0419476 C101.61255,90.5989476 90.8245502,101.552948 75.3465502,101.661948 C59.0135502,101.775948 42.6785502,101.801948 26.3465502,101.652948 C10.6875502,101.510948 0.0715502286,90.6619476 0.0585502286,75.0929476 C0.0445502286,58.5929476 0.0295502286,42.0929476 0.0635502286,25.5939476 C0.0935502286,10.9799476 11.0355502,0.080947552 25.6725502,0.059947552 C42.1725502,0.035947552 58.6735502,0.175947552 75.1715502,0.00194755196 C83.1855502,-0.083052448 89.7925502,2.61094755 95.4175502,8.73994755" id="Fill-76"></path>
        </g>
  
  <!-- Original Bird and Person (scaled and positioned) -->
  <g transform="translate(-320, 0) scale(1.6)" opacity="1">
    <path fill="#faa919" transform="translate(-33.4672, 386.6088)" d="M379.1453,137.1727C379.1453,137.1727,349.4192,190.234,410.4819,275.8134C471.536,361.3975,517.0774,321.576,517.0774,321.576L504.5263,259.5591L484.3333,165.3788L379.1453,137.1727"/>
    <path fill="#ffffff" transform="translate(-33.4672, 386.6088)" d="M558.5664,268.2386C437.4487,309.6371,272.3749,233.6497,211.3297,169.7298C106.5331,59.9467,31.6925,136.2532,3.5769,150.1151C-0.933,152.3611,-1.1762,154.0624,2.8363,154.8C24.7285,158.9453,97.4744,178.5491,119.1124,259.3478C210.3237,600.0213,496.3771,629.1489,646.8706,594.4557C720.9484,577.3733,738.839,545.862,688.6709,561.1442C646.0968,574.1032,613.3882,562.526,612.9627,541.2432C612.2664,507.1445,661.8319,500.9676,786.4648,436.5137C985.6121,333.5514,905.1951,93.8306,905.1951,93.8306C905.1951,93.8306,789.2782,189.3447,558.5664,268.2386z"/>
    <g transform="translate(346.5087, 386.6088)">
      <path fill="#faa919" d="M273.4248,89.1984C273.4248,89.1984,222.064,91.1109,168.1969,71.4704C146.193,63.4239,118.68,27.8085,95.5626,15.6726C21.6345,-23.2078,5.3196,25.5407,5.3196,25.5407L8.8675,36.2512C3.255,45.8916,0.1894,57.3946,0.6447,69.6489C1.6364,96.9262,19.7004,119.1215,43.2732,124.8547C56.4187,129.6406,91.537,139.8594,142.2258,135.2738C207.3496,129.3676,273.4248,89.1984,273.4248,89.1984"/>
    </g>
    <path fill="#faa919" transform="translate(-33.4672, 386.6088)" d="M242.8972,40.3449C242.8972,40.3449,284.9839,87.9677,379.4605,119.8587C473.9463,151.7407,528.7023,146.6065,594.2093,195.184C646.3345,233.8172,678.3733,290.4835,678.3733,290.4835C678.3733,290.4835,622.7358,218.2792,507.0492,209.0871C391.3534,199.8815,240.7415,95.8536,242.8972,40.3449"/>
  </g>

    <!--  star -->
   <g transform="translate(-340 -7450) scale(7)">
    <path d="m12 1028.4 4 9 8 1-6 5 2 9-8-5-8 5 2-9-6-5 8-1z" fill="#f39c12"/>
    <path d="m12 1028.4-4 9-6.9688 0.8 4.9688 4.2-0.1875 0.8 0.1875 0.2-1.75 7.8 7.75-4.8 7.75 4.8-1.75-7.8 0.188-0.2-0.188-0.8 4.969-4.2-6.969-0.8-4-9z" fill="#f1c40f"/>
    </g>
</svg>
